<?xml version="1.0" encoding="UTF-8"?>
<svg width="319px" height="65px" viewBox="0 0 319 65" version="1.1" xmlns="http://www.w3.org/2000/svg" xmlns:xlink="http://www.w3.org/1999/xlink">
    <title>tiger-tea-logo</title>
    <g id="Page-1" stroke="none" stroke-width="1" fill="none" fill-rule="evenodd">
        <g id="Artboard-Copy" transform="translate(-234.000000, -83.000000)" fill="#E67E22">
            <g id="tiger-tea-logo" transform="translate(232.000000, 78.000000)">
                <g id="Group-21" transform="translate(2.622463, 5.242718)">
                    <path d="M81.1692152,51.6694515 L81.1692152,49.6725583 C84.4668165,49.6725583 86.1159085,48.3413447 86.1159085,45.6789175 L86.1159085,24.1890146 C86.1159085,23.2380437 85.4655378,22.7627039 84.1656704,22.7627039 C83.1825382,22.7627039 82.3346086,22.9291602 81.621153,23.2619272 C80.9075517,23.5946942 80.2892333,24.0939175 79.766052,24.7595971 C79.2428706,25.4251311 78.7985089,26.2571214 78.4344236,27.255568 C78.0694642,28.2540146 77.7445702,29.4189175 77.4591589,30.7501311 L74.5103452,30.322267 L75.8421192,19.7673641 C76.6663009,19.8945 77.5700308,19.9895971 78.5531629,20.0526553 C79.5357123,20.1165874 80.3131268,20.1477524 80.8838039,20.1477524 L99.6715644,20.1477524 C100.368702,20.1477524 101.224791,20.1165874 102.240121,20.0526553 C103.254577,19.9895971 104.17375,19.8945 104.998806,19.7673641 L104.998806,30.1795485 L102.240121,30.4172184 C102.081025,27.9138204 101.550413,26.0431893 100.646683,24.8070728 C99.7429536,23.5709563 98.18084,22.9528981 95.9616537,22.9528981 C94.597973,22.9528981 93.9164241,23.3651796 93.9164241,24.1890146 L93.9164241,45.6789175 C93.9164241,48.3413447 95.5966943,49.6725583 98.9582545,49.6725583 L98.9582545,51.6694515 L81.1692152,51.6694515 Z" id="Fill-1"></path>
                    <path d="M107.852264,51.6694515 L107.852264,49.6725583 C110.801224,49.6725583 112.27563,48.7061505 112.27563,46.7724612 L112.27563,25.9957136 C112.27563,23.4921699 110.737265,22.2397427 107.66199,22.2397427 L107.66199,20.1477524 L124.309384,20.1477524 L124.309384,22.2397427 C121.48674,22.2397427 120.076146,23.4921699 120.076146,25.9957136 L120.076146,46.7724612 C120.076146,48.7061505 121.566288,49.6725583 124.547154,49.6725583 L124.547154,51.6694515 L107.852264,51.6694515 Z" id="Fill-3"></path>
                    <path d="M155.510747,52.1924563 C154.876111,51.9383301 154.27411,51.5907087 153.703433,51.1463883 C153.13261,50.7029417 152.640607,50.2431845 152.22888,49.767699 C151.118559,50.5922621 149.842585,51.2340583 148.399939,51.693233 C146.95671,52.1524078 145.474727,52.3826505 143.952679,52.3826505 C139.227438,52.3826505 135.573182,51.0595922 132.989182,48.4126019 C130.404453,45.7664854 129.112891,41.7802718 129.112891,36.4552718 C129.112891,34.0150777 129.389997,31.7647864 129.945085,29.7041068 C130.499591,27.6441553 131.363983,25.8694951 132.537244,24.3792524 C133.710068,22.8897379 135.208368,21.7249806 137.032145,20.8846893 C138.855194,20.0452718 141.019309,19.624835 143.524635,19.624835 C144.253679,19.624835 145.03022,19.6723107 145.855421,19.7674078 C146.679458,19.8625049 147.488196,20.0133786 148.281054,20.2191553 C149.073183,20.4256602 149.82685,20.6944951 150.540306,21.0274078 C151.253761,21.3601748 151.87951,21.764301 152.419154,22.2397864 C153.21143,21.0035243 154.321751,20.1796893 155.748662,19.7674078 C156.92134,22.3986699 157.508481,26.1546408 157.508481,31.0353204 L154.131331,31.0353204 C153.338473,27.8023107 152.260058,25.4891068 150.897106,24.0939612 C149.533425,22.6995437 147.678324,22.0019709 145.332094,22.0019709 C143.746087,22.0019709 142.44622,22.3586214 141.431764,23.0717767 C140.416579,23.784932 139.616145,24.7201748 139.029879,25.8767767 C138.442739,27.0342524 138.038443,28.365466 137.81699,29.8705631 C137.594664,31.3763883 137.484083,32.9059515 137.484083,34.4585243 C137.484083,35.884835 137.531579,37.4857573 137.626716,39.2604175 C137.721853,41.0359515 138.007119,42.699932 138.482804,44.2525049 C138.958636,45.8059515 139.703124,47.1134272 140.718454,48.174932 C141.73291,49.2373107 143.159821,49.767699 144.999187,49.767699 C146.932962,49.767699 148.383621,49.302699 149.35131,48.3718252 C150.318125,47.4410971 150.801969,45.839301 150.801969,43.5668738 C150.801969,40.5693495 149.200373,39.0703689 145.997909,39.0703689 L145.997909,37.0734757 L161.313528,37.0734757 L161.313528,39.0703689 C158.554989,39.0703689 157.175573,40.1481845 157.175573,42.303233 L157.175573,52.1924563 L155.510747,52.1924563 Z" id="Fill-5"></path>
                    <path d="M163.929318,51.6694515 L163.929318,49.6725583 C166.783141,49.6725583 168.210052,48.7537718 168.210052,46.915034 L168.210052,25.8055194 C168.210052,23.4283835 166.67154,22.2397427 163.596411,22.2397427 L163.596411,20.1477524 L190.897997,20.1477524 L191.278546,29.4663932 L188.377228,29.7040631 C188.091816,27.9614417 187.679361,26.6219272 187.140445,25.6866845 C186.600946,24.7521699 185.951304,24.0701796 185.190498,23.6423155 C184.429401,23.2143058 183.55685,22.9610534 182.574446,22.8815388 C181.591168,22.8028981 180.497164,22.7627039 179.292434,22.7627039 C178.246071,22.7627039 177.437479,22.9128495 176.866656,23.2128495 C176.295979,23.5129951 176.010567,23.9468301 176.010567,24.5143544 L176.010567,32.8464903 C176.010567,33.6042087 176.374653,33.9831408 177.104571,33.9831408 C177.865523,33.9831408 178.562515,33.9355194 179.197297,33.8404223 C179.831204,33.7453252 180.393868,33.5313932 180.885871,33.1986262 C181.377146,32.8658592 181.781297,32.3666359 182.09876,31.7009563 C182.41535,31.0354223 182.621942,30.1320728 182.717079,28.9909078 L185.475764,28.9909078 L185.475764,41.6851311 L182.717079,41.6851311 C182.621942,40.6080437 182.462846,39.7358592 182.241393,39.0703252 C182.019212,38.4046456 181.710053,37.8981408 181.313916,37.5489175 C180.91705,37.2004223 180.417616,36.9627524 179.815615,36.8357621 C179.212886,36.7093544 178.483841,36.6299854 177.627607,36.5979466 C176.549338,36.6931893 176.010567,37.1210534 176.010567,37.8816845 L176.010567,46.7724612 C176.010567,48.2938689 177.199709,49.0545 179.577845,49.0545 C181.51162,49.0545 183.057416,48.9045 184.215234,48.6028981 C185.372468,48.3020243 186.315535,47.8421214 187.045308,47.2240631 C187.774498,46.6060049 188.360765,45.8214903 188.805272,44.870665 C189.248905,43.9198398 189.708856,42.7786748 190.184542,41.4474612 L192.895731,41.8278495 L191.563957,51.6694515 L163.929318,51.6694515 Z" id="Fill-7"></path>
                    <path d="M211.016847,34.2208107 C211.872935,34.2208107 212.641317,34.165034 213.323594,34.0536262 C214.005143,33.9422184 214.591555,33.6880922 215.083558,33.2899369 C215.574687,32.8925097 215.955236,32.2960049 216.225058,31.4996942 C216.494152,30.7041117 216.629354,29.6216359 216.629354,28.2532864 C216.629354,27.1396456 216.494152,26.2170728 216.225058,25.4845485 C215.955236,24.7528981 215.590422,24.1719757 215.131054,23.7425097 C214.671103,23.3131893 214.124028,23.0108592 213.490121,22.8355194 C212.855485,22.6601796 212.173936,22.5725097 211.444891,22.5725097 L210.49352,22.5725097 C209.542294,22.5725097 209.066609,23.3525097 209.066609,24.9119272 L209.066609,33.7431408 C209.161892,34.0617816 209.415251,34.2208107 209.827706,34.2208107 L211.016847,34.2208107 Z M230.660696,47.0101311 C230.660696,47.4544515 230.518063,47.9692573 230.232652,48.5552767 C229.947386,49.1421699 229.526626,49.7045971 228.972121,50.2431408 C228.417033,50.7824126 227.751073,51.2415874 226.974533,51.6218301 C226.197119,52.0022184 225.3336,52.1924126 224.382229,52.1924126 C222.415819,52.1924126 220.973318,51.8908107 220.053854,51.2890631 C219.133952,50.6873155 218.515634,49.9266845 218.199044,49.0070243 C217.533084,47.1371214 216.945944,45.4411019 216.43908,43.9198398 C215.931488,42.3982864 215.400148,41.0909563 214.845643,39.9974126 C214.290555,38.9038689 213.656647,38.0644515 212.943192,37.4775583 C212.22959,36.8913932 211.317702,36.5979466 210.208254,36.5979466 C209.605379,36.5979466 209.224976,36.7093544 209.066609,36.9308592 L209.066609,46.915034 C209.066609,48.7536262 210.477202,49.6725583 213.299847,49.6725583 L213.299847,51.6694515 L196.937864,51.6694515 L196.937864,49.6725583 C199.664643,49.6725583 201.028323,48.7536262 201.028323,46.915034 L201.028323,24.9021699 C201.028323,23.1275097 199.553771,22.2397427 196.604957,22.2397427 L196.604957,20.1477524 L204.07242,20.1477524 C205.118928,20.1477524 206.006195,20.1403252 206.735968,20.1240146 C207.465158,20.108432 208.22611,20.0846942 209.019113,20.0526553 C209.811388,20.0214903 210.723131,19.9977524 211.75405,19.9814417 C212.784096,19.9657136 214.092122,19.9577039 215.677983,19.9577039 C217.326492,19.9577039 218.737815,20.1642087 219.911367,20.5764903 C221.084045,20.9895 222.043575,21.5525097 222.788937,22.2665388 C223.533571,22.9802767 224.073069,23.8212961 224.405976,24.788432 C224.739029,25.7564417 224.90541,26.8113932 224.90541,27.9538689 C224.90541,30.1112476 224.0805,31.8643544 222.432282,33.2127524 C220.783044,34.561733 218.547395,35.4101796 215.725625,35.7592573 C216.867124,35.9182864 217.849674,36.1077524 218.67473,36.3291117 C219.498766,36.5504709 220.196632,36.8431893 220.767455,37.2071214 C221.338278,37.571199 221.821248,38.0146456 222.218114,38.5368786 C222.614252,39.0599854 222.971052,39.6690146 223.28837,40.3651311 C223.732004,41.378432 224.0805,42.3835777 224.334733,43.3804223 C224.588092,44.3774126 224.849755,45.271733 225.119578,46.0629466 C225.388672,46.8548883 225.690255,47.4959563 226.023308,47.9862961 C226.356215,48.4766359 226.839331,48.721733 227.473967,48.721733 C228.170959,48.721733 228.710603,47.9929951 229.091152,46.5346456 L230.660696,47.0101311 Z" id="Fill-9"></path>
                    <path d="M242.265298,51.6694515 L242.407931,50.2431408 C243.803081,50.2431408 244.952739,49.8792087 245.856323,49.1495971 C246.760199,48.4208592 247.322717,47.3273155 247.544898,45.8691117 L250.731773,23.9513447 C250.731773,23.3495971 250.604584,22.9052767 250.351225,22.6201311 C250.097137,22.3348398 249.590128,22.1921214 248.829176,22.1921214 C245.119266,22.1921214 242.344117,24.9021699 240.505479,30.322267 L239.268843,29.9418786 L241.837253,19.8149854 C242.471161,19.9100825 243.081466,19.9895971 243.668461,20.0526553 C244.254873,20.1165874 244.817537,20.1477524 245.357036,20.1477524 L261.814155,20.1477524 C262.416156,20.1477524 263.042633,20.1165874 263.692858,20.0526553 C264.342501,19.9895971 265.00103,19.9100825 265.666844,19.8149854 L264.239933,29.7516845 L263.003296,29.9418786 C263.034475,29.7205194 263.050792,29.5064417 263.050792,29.2999369 L263.050792,28.7056165 C263.050792,24.4587233 261.116434,22.3348398 257.24801,22.3348398 C255.852277,22.3348398 255.075737,22.8741117 254.917369,23.9513447 L251.825777,45.8691117 C251.793725,46.0281408 251.769977,46.1862961 251.754388,46.3445971 C251.73807,46.5034806 251.73064,46.6617816 251.73064,46.8199369 C251.73064,49.1021214 253.078003,50.2431408 255.773604,50.2431408 L255.630825,51.6694515 L242.265298,51.6694515 Z" id="Fill-11"></path>
                    <path d="M263.906589,51.6694515 L264.096863,50.2431408 C265.238509,50.2431408 266.197165,49.9815874 266.974579,49.4571699 C267.75112,48.9334806 268.218646,48.1638204 268.377597,47.1476068 L271.51683,24.7172184 C271.51683,22.6223155 270.280194,21.5740631 267.80692,21.5740631 L267.997048,20.1477524 L290.494865,20.1477524 L289.54364,29.0385291 L288.21172,29.2287233 C288.179813,27.4858107 287.97395,26.138432 287.593547,25.1874612 C287.212999,24.2364903 286.681513,23.5397913 286.00011,23.0954709 C285.317832,22.6520243 284.50924,22.3904709 283.574332,22.3111019 C282.638549,22.2323155 281.631669,22.1921214 280.554129,22.1921214 L279.412483,22.1921214 C278.207024,22.1921214 277.335347,22.366733 276.796576,22.7152282 C276.256932,23.0643058 275.940342,23.6028495 275.84506,24.3315874 L274.608568,32.8419757 C274.608568,32.9059078 274.600264,32.9691117 274.584675,33.0321699 C274.568503,33.0961019 274.560927,33.1591602 274.560927,33.2223641 C274.560927,33.9199369 274.846338,34.268432 275.417161,34.268432 L276.891568,34.268432 C277.620613,34.268432 278.294731,34.228966 278.91305,34.1494515 C279.531368,34.0708107 280.102191,33.8641602 280.625372,33.5313932 C281.148553,33.1986262 281.607776,32.6919757 282.004788,32.0099854 C282.400779,31.3288689 282.725673,30.4016359 282.979761,29.2287233 L284.596946,29.2287233 L282.837128,41.5425583 L281.267438,41.5425583 L281.267438,40.4015388 C281.267438,39.5145 281.179877,38.8013447 281.005775,38.2620728 C280.831235,37.7235291 280.554129,37.3111019 280.173434,37.0259563 C279.793032,36.740665 279.309187,36.5504709 278.722775,36.4553738 C278.135635,36.3602767 277.430338,36.312801 276.606157,36.312801 L276.130471,36.312801 C274.76679,36.312801 274.021428,36.8357621 273.895113,37.8816845 L272.610834,46.9626553 C272.578782,47.0896456 272.563339,47.247801 272.563339,47.4379951 C272.563339,48.9282379 273.609701,49.6725583 275.702572,49.6725583 L276.986705,49.6725583 C278.794165,49.6725583 280.268717,49.5225583 281.410217,49.2209563 C282.551717,48.9200825 283.510518,48.4445971 284.287787,47.7946456 C285.064473,47.1454223 285.722129,46.3290146 286.261627,45.3461505 C286.800544,44.3640146 287.38681,43.2066845 288.021591,41.8754709 L289.11545,42.2557136 L286.689817,51.6694515 L263.906589,51.6694515 Z" id="Fill-13"></path>
                    <path d="M305.667226,26.1383592 L300.530258,36.122534 C300.276171,36.5348155 300.094055,36.8833107 299.983183,37.1686019 C299.871874,37.4537476 299.816802,37.6915631 299.816802,37.8817573 C299.816802,38.2621456 300.308077,38.4521942 301.291355,38.4521942 L306.665947,38.4521942 C307.585411,38.4521942 308.045362,38.230835 308.045362,37.7866602 C308.045362,37.6283592 308.021614,37.4300097 307.974119,37.1923398 C307.926477,36.9545243 307.870677,36.6619515 307.807447,36.3127282 L305.667226,26.1383592 Z M305.8575,51.6693786 L305.952637,50.2432136 C306.364218,50.1800097 306.800567,50.1168058 307.260663,50.0528738 C307.719885,49.9898155 308.14793,49.910301 308.544796,49.8152039 C308.940933,49.7201068 309.265682,49.6012718 309.519769,49.458699 C309.77342,49.3159806 309.900463,49.1496699 309.900463,48.9594757 C309.900463,48.8011748 309.892159,48.6265631 309.876715,48.4365146 C309.860252,48.2463204 309.820915,47.9454466 309.757685,47.533165 L308.711322,41.6852039 C308.616185,41.2736505 308.314456,40.9646214 307.807447,40.7581165 C307.3,40.5523398 306.776673,40.4490874 306.237903,40.4490874 L299.91194,40.4490874 C298.801618,40.4490874 298.072573,40.8591845 297.723931,41.679233 L295.536069,46.5993786 C295.47211,46.788699 295.400721,47.0176311 295.322047,47.2857379 C295.242499,47.5539903 295.203162,47.8451068 295.203162,48.1601068 C295.203162,49.3903981 296.360251,50.0053981 298.675303,50.0053981 L298.485028,51.6693786 L288.877053,51.6693786 L289.162465,50.0053981 C289.986646,49.9423398 290.708261,49.6257379 291.326579,49.0560291 C291.944898,48.4869029 292.539614,47.6639417 293.110291,46.5874369 L307.284411,19.4346699 L308.473552,20.0043786 L314.609241,48.2016117 C314.735556,48.9935534 315.037285,49.4838932 315.512971,49.6733592 C315.988656,49.8635534 316.73329,50.0372913 317.748475,50.1955922 L317.605696,51.6693786 L305.8575,51.6693786 Z" id="Fill-15"></path>
                    <path d="M60.3243949,48.7723252 L34.7594622,29.1716942 L55.0898135,55.5063058 C50.1705104,60.3629563 43.7052655,63.658733 36.4972808,64.5906262 L32.2959498,32.3744126 L28.0946187,64.5906262 C20.8877995,63.658733 14.4225546,60.3629563 9.50208597,55.5063058 L29.8324373,29.1716942 L4.26750456,48.7723252 C1.95536653,44.8194612 0.456629048,40.3340243 2.91384754e-05,35.5445097 L28.4547702,24.1513544 L0.208660622,27.6051408 C0.945718358,22.6643155 2.79790555,18.0880049 5.50035345,14.1395097 L27.5214649,20.2016942 L9.28456725,9.56873301 C15.1607779,3.6591699 23.3009024,4.36893204e-05 32.2959498,4.36893204e-05 C41.2909971,4.36893204e-05 49.4311216,3.6591699 55.3073323,9.56989806 L37.0705803,20.2016942 L59.0902348,14.1395097 C61.7928284,18.0880049 63.6450156,22.6643155 64.382219,27.6051408 L36.1371293,24.1513544 L64.5907048,35.5445097 C64.1341049,40.3340243 62.6353674,44.8194612 60.3243949,48.7723252" id="Fill-18"></path>
                </g>
            </g>
        </g>
    </g>
</svg>